<!-- icon666.com - MILLIONS OF FREE VECTOR ICONS --><svg version="1.1" id="Capa_1" xmlns="http://www.w3.org/2000/svg" xmlns:xlink="http://www.w3.org/1999/xlink" x="0px" y="0px" viewBox="0 0 512 512" style="enable-background:new 0 0 512 512;" xml:space="preserve"><path style="fill:#FEA832;" d="M121,180L121,180c-49.706,0-90-40.294-90-90l0,0c0-49.706,40.294-90,90-90l0,0 c49.706,0,90,40.294,90,90l0,0C211,139.706,170.706,180,121,180z"></path><path style="fill:#FE9923;" d="M391,180L391,180c-49.706,0-90-40.294-90-90l0,0c0-49.706,40.294-90,90-90l0,0 c49.706,0,90,40.294,90,90l0,0C481,139.706,440.706,180,391,180z"></path><path style="fill:#896748;" d="M121,150L121,150c-33.137,0-60-26.863-60-60l0,0c0-33.137,26.863-60,60-60l0,0 c33.137,0,60,26.863,60,60l0,0C181,123.137,154.137,150,121,150z"></path><path style="fill:#73553A;" d="M391,150L391,150c-33.137,0-60-26.863-60-60l0,0c0-33.137,26.863-60,60-60l0,0 c33.137,0,60,26.863,60,60l0,0C451,123.137,424.137,150,391,150z"></path><path style="fill:#FEDB41;" d="M512,362c0,82.8-68.2,150-151,150c-30.3,0-59.399-9-84.3-26.4h-41.4C210.399,503,181.3,512,151,512 C68.2,512,0,444.8,0,362c0-46.8,23.2-90.601,61-119.101V227c0-107.401,87.599-197,195-197s196,89.599,196,197v15.899 C489.8,271.399,512,315.2,512,362z"></path><path style="fill:#FCBF29;" d="M512,362c0,82.8-68.2,150-151,150c-30.3,0-59.399-9-84.3-26.4H256V30c107.401,0,196,89.599,196,197 v15.899C489.8,271.399,512,315.2,512,362z"></path><path style="fill:#896748;" d="M256,302c-24.901,0-45,20.099-45,45c0,3.9,1.5,7.8,4.501,10.499l30,30C248.2,390.5,252.1,392,256,392 s7.8-1.5,10.499-4.501l30-30C299.5,354.8,301,350.9,301,347C301,322.099,280.901,302,256,302z"></path><circle style="fill:#73553A;" cx="196" cy="257" r="15"></circle><circle style="fill:#59422D;" cx="316" cy="257" r="15"></circle><path style="fill:#E5E5E5;" d="M301,437v30c0,24.899-20.099,45-45,45s-45-20.101-45-45v-30c0-8.401,6.599-15,15-15h60 C294.401,422,301,428.599,301,437z"></path><path style="fill:#D9D9D9;" d="M301,437v30c0,24.899-20.099,45-45,45v-90h30C294.401,422,301,428.599,301,437z"></path><path style="fill:#73553A;" d="M301,347c0,3.9-1.5,7.8-4.501,10.499l-30,30C263.8,390.5,259.9,392,256,392v-90 C280.901,302,301,322.099,301,347z"></path><path style="fill:#896748;" d="M331,407c0,24.899-20.099,45-45,45c-11.7,0-21.899-4.501-30-11.7c-8.101,7.2-18.3,11.7-30,11.7 c-24.901,0-45-20.101-45-45c0-8.401,6.599-15,15-15s15,6.599,15,15c0,8.399,6.599,15,15,15s15-6.601,15-15v-30 c0-8.401,6.599-15,15-15s15,6.599,15,15v30c0,8.399,6.599,15,15,15s15-6.601,15-15c0-8.401,6.599-15,15-15S331,398.599,331,407z"></path><path style="fill:#73553A;" d="M331,407c0,24.899-20.099,45-45,45c-11.7,0-21.899-4.501-30-11.7V362c8.401,0,15,6.599,15,15v30 c0,8.399,6.599,15,15,15s15-6.601,15-15c0-8.401,6.599-15,15-15S331,398.599,331,407z"></path></svg>