<!-- icon666.com - MILLIONS vector ICONS FREE --><svg fill="none" viewBox="0 0 24 24" xmlns="http://www.w3.org/2000/svg" xmlns:xlink="http://www.w3.org/1999/xlink"><linearGradient id="paint0_linear_35_6216" gradientUnits="userSpaceOnUse" x1="12" x2="12" y1="17.993" y2="5.697"><stop offset="0" stop-color="#e2b0ff"></stop><stop offset="1" stop-color="#9f44d3"></stop></linearGradient><path clip-rule="evenodd" d="m10.7797 17.4233c-2.51622 1.7823-5.76143-.9355-4.44847-3.7255l2.95436-6.27802c1.08081-2.29682 4.34811-2.29681 5.42891 0l2.9544 6.27802c1.3129 2.79-1.9323 5.5078-4.4485 3.7255l-.6423-.455c-.3463-.2453-.8098-.2453-1.1561 0zm-2.63883-2.8739c-.43766.93.64409 1.8359 1.48283 1.2418l.6423-.4549c1.0389-.7359 2.4292-.7359 3.4681 0l.6423.4549c.8387.5941 1.9205-.3118 1.4828-1.2418l-2.9543-6.27803c-.3603-.76561-1.4494-.7656-1.8097 0z" fill="url(#paint0_linear_35_6216)" fill-rule="evenodd" style="fill: rgb(0, 0, 0);"></path></svg>